# xmcd CD database file generated by LOLA_Freedb v0.9beta0
# 
# Track frame offsets:
#      150
#      24815
#      54932
#      96007
#      119982
#      137265
#      169297
#      186287
#      219402
#      244235
# 
# Disc length: 3490 seconds
# 
# Revision: 3 
# Processed by: cddbd v1.5.2PL0 Copyright (c) Steve Scherf et al.
# Submitted via: LOLA_Freedb v0.9beta0
# 
DISCID=860da00a
DTITLE=Joanna Connor - Living on the road
DYEAR=1993
DGENRE=Blues
TTITLE0=Joanna Connor - My baby's loving
TTITLE1=Good woman gone bad
TTITLE2=Sky is crying
TTITLE3=Jalapeno mama
TTITLE4=Forgotten woman
TTITLE5=Midnight sunrise
TTITLE6=Wildfire woman
TTITLE7=Boogie Woogie nighthawk
TTITLE8=Dark end of the street
TTITLE9=Going back home
EXTD=YEAR: 1993 ID3G: 0
EXTT0=
EXTT1=
EXTT2=
EXTT3=
EXTT4=
EXTT5=
EXTT6=
EXTT7=
EXTT8=
EXTT9=
PLAYORDER=
